<svg id="svg" xmlns="http://www.w3.org/2000/svg" xmlns:xlink="http://www.w3.org/1999/xlink" width="400" height="367.1981776765376" viewBox="0, 0, 400,367.1981776765376" version="1.1"><g id="svgg"><path id="path0" d="M274.715 50.525 C 274.339 50.735,272.904 51.156,271.526 51.459 C 267.236 52.402,261.521 54.611,255.094 57.812 C 237.593 66.526,234.139 71.952,231.650 94.640 C 230.794 102.448,230.688 103.076,229.296 108.589 C 227.578 115.389,229.404 119.936,237.556 129.157 C 241.580 133.710,246.580 141.230,245.583 141.230 C 245.298 141.230,244.465 140.786,243.731 140.244 C 241.860 138.860,238.404 138.685,231.645 139.629 C 225.262 140.521,222.179 140.407,214.806 139.006 C 207.352 137.589,206.705 137.903,209.692 141.490 C 210.512 142.474,212.040 144.437,213.087 145.852 C 217.640 152.001,222.749 154.672,229.946 154.665 C 235.993 154.660,236.139 154.219,228.088 160.282 C 222.268 164.666,220.952 165.423,213.701 168.560 C 208.500 170.810,207.506 171.754,210.339 171.754 C 211.306 171.754,212.502 172.032,212.997 172.371 C 219.128 176.583,234.341 176.272,245.912 171.698 C 249.734 170.187,249.840 170.167,249.506 171.039 C 247.568 176.088,212.278 211.189,199.203 221.073 C 196.602 223.039,188.968 229.553,185.703 232.592 C 184.218 233.974,177.438 239.364,174.260 241.687 C 172.255 243.153,168.975 245.718,166.970 247.387 C 159.299 253.774,154.021 257.262,141.532 264.198 C 137.726 266.312,137.860 265.850,142.864 259.588 C 149.488 251.298,149.953 250.701,153.803 245.528 C 167.733 226.812,171.085 216.834,168.762 200.996 C 167.796 194.409,166.716 187.500,166.221 184.738 C 165.351 179.888,166.962 171.506,169.975 165.198 C 171.405 162.204,171.491 160.603,170.115 162.567 C 169.727 163.122,168.655 164.447,167.734 165.512 C 163.402 170.519,151.696 189.204,144.925 201.919 C 136.779 217.217,136.522 229.991,143.935 251.210 C 144.452 252.690,144.875 254.172,144.875 254.502 C 144.875 255.026,141.596 259.166,135.278 266.618 C 133.649 268.540,131.720 269.871,125.513 273.358 C 123.177 274.671,109.363 281.569,106.378 282.915 C 103.611 284.162,89.751 291.023,80.410 295.770 C 72.028 300.029,65.819 302.596,53.986 306.691 C 48.975 308.426,43.235 310.425,41.230 311.134 C 26.359 316.392,21.435 318.092,20.046 318.447 C 19.169 318.671,17.733 319.054,16.856 319.298 C 15.979 319.542,12.802 320.391,9.795 321.186 C 4.094 322.693,2.590 323.287,5.695 322.806 C 15.942 321.218,24.297 318.710,58.542 306.939 C 69.883 303.041,75.808 300.484,93.394 291.900 C 98.280 289.514,104.841 286.400,107.973 284.979 C 126.000 276.800,160.549 256.992,166.022 251.696 C 168.214 249.575,169.927 248.677,170.564 249.314 C 170.925 249.676,171.802 250.188,172.512 250.453 C 180.655 253.493,181.398 253.874,181.088 254.849 C 180.594 256.406,180.025 269.169,180.275 273.121 C 180.858 282.359,184.425 287.359,194.135 292.550 C 205.485 298.619,209.316 301.488,215.109 308.260 C 217.521 311.080,219.063 312.521,219.577 312.434 C 220.008 312.361,220.705 312.586,221.126 312.935 C 222.723 314.261,222.475 312.776,220.500 309.189 L 218.451 305.467 218.430 295.444 C 218.406 284.307,218.319 283.808,214.907 275.399 C 208.734 260.186,198.060 251.899,182.618 250.331 C 181.028 250.170,178.804 249.758,177.677 249.416 C 176.549 249.075,174.653 248.659,173.462 248.492 C 169.912 247.994,171.045 246.399,175.399 245.768 C 179.834 245.125,188.088 243.320,189.726 242.636 C 194.192 240.770,198.154 241.929,202.443 246.355 C 207.098 251.158,215.503 256.304,222.779 258.806 C 228.903 260.912,239.997 260.441,252.618 257.539 C 259.575 255.939,260.041 255.815,262.879 254.800 C 265.138 253.993,265.579 253.965,267.207 254.529 C 268.368 254.930,270.497 255.110,273.121 255.027 L 277.221 254.897 272.991 254.315 C 264.490 253.145,257.555 248.344,253.016 240.487 C 247.606 231.122,239.274 226.239,228.702 226.237 C 220.332 226.235,214.938 228.237,201.227 236.432 C 198.264 238.203,195.338 239.636,194.684 239.636 C 194.033 239.636,192.758 239.836,191.852 240.080 C 189.001 240.849,178.045 242.889,177.844 242.688 C 177.738 242.582,178.426 241.908,179.373 241.189 C 181.025 239.933,191.434 230.997,195.216 227.586 C 196.219 226.682,198.576 224.783,200.456 223.366 C 205.207 219.782,208.555 216.911,214.157 211.617 C 216.808 209.112,220.235 206.036,221.772 204.784 C 231.526 196.832,255.125 170.157,255.125 167.083 C 255.125 165.384,256.609 168.542,257.855 172.893 C 260.576 182.394,263.847 187.542,270.567 192.898 C 274.441 195.985,282.729 201.393,284.571 202.036 C 285.356 202.310,286.335 202.813,286.746 203.154 C 288.173 204.339,287.974 203.263,286.066 199.478 C 283.927 195.232,282.932 192.017,282.916 189.294 C 282.893 185.414,281.462 181.739,278.074 176.857 C 275.814 173.602,275.611 172.864,277.107 173.342 C 294.104 178.768,309.109 177.359,321.443 169.180 C 324.231 167.331,325.527 166.743,326.811 166.743 C 329.235 166.743,330.722 166.007,338.085 161.167 C 341.694 158.795,346.492 155.867,348.747 154.660 C 363.156 146.952,365.604 143.835,362.811 136.752 C 359.352 127.981,356.548 124.384,349.778 120.033 C 345.717 117.423,345.698 117.385,347.881 116.349 C 352.015 114.387,353.558 111.657,352.739 107.752 C 351.554 102.100,349.491 98.011,345.842 94.081 C 343.795 91.876,342.122 89.611,341.767 88.564 C 339.550 82.025,337.235 77.728,332.710 71.754 C 329.269 67.211,325.062 61.596,323.418 59.352 C 321.014 56.070,311.598 56.203,300.898 59.669 L 297.695 60.707 294.865 59.278 C 293.309 58.493,290.655 56.599,288.968 55.070 C 284.290 50.830,277.839 48.773,274.715 50.525 M282.924 52.566 C 284.301 53.249,286.582 55.010,288.008 56.490 C 289.431 57.966,291.549 59.659,292.715 60.252 C 295.199 61.515,295.110 61.643,290.433 63.537 C 288.679 64.247,286.170 65.426,284.857 66.157 C 283.545 66.888,282.247 67.348,281.973 67.179 C 281.281 66.751,272.873 64.719,271.736 64.704 C 271.225 64.698,269.642 64.389,268.218 64.018 C 264.747 63.114,264.385 63.338,262.368 67.644 C 259.616 73.517,258.851 83.671,260.614 90.950 C 261.129 93.077,261.101 93.375,260.314 94.220 C 259.838 94.731,257.741 98.545,255.654 102.696 C 251.075 111.805,251.025 111.848,251.025 106.655 C 251.025 102.075,250.650 99.894,248.668 92.938 C 247.343 88.291,246.765 87.024,246.221 87.568 C 245.942 87.847,246.737 92.039,248.281 98.429 C 249.638 104.047,249.982 113.564,248.989 117.995 C 248.567 119.875,248.108 122.288,247.969 123.359 C 247.829 124.430,247.537 125.416,247.320 125.550 C 247.103 125.684,246.958 127.268,246.998 129.070 L 247.072 132.346 247.418 129.157 C 247.912 124.613,248.256 123.031,249.211 120.913 C 249.674 119.887,250.372 117.816,250.761 116.311 C 251.643 112.911,252.360 111.164,255.121 105.695 C 259.162 97.690,260.944 94.533,261.423 94.533 C 261.684 94.533,264.637 98.633,267.984 103.645 C 275.582 115.020,279.954 121.403,281.561 123.462 C 284.583 127.337,290.444 138.034,294.243 146.610 C 294.833 147.940,295.418 148.925,295.544 148.799 C 295.973 148.370,294.152 143.289,291.709 138.104 C 288.099 130.440,286.470 127.848,276.071 113.212 C 270.500 105.372,263.683 94.274,262.573 91.237 C 261.410 88.059,261.139 75.409,262.160 71.954 C 263.084 68.825,265.259 64.884,265.978 65.036 C 268.413 65.551,279.993 68.466,280.132 68.599 C 280.230 68.692,279.574 69.584,278.673 70.580 C 277.040 72.388,275.514 75.238,274.927 77.578 C 274.458 79.447,273.924 79.068,273.589 76.630 C 273.095 73.039,272.452 72.730,272.448 76.082 C 272.439 82.547,274.753 89.028,282.613 104.556 C 292.479 124.048,294.347 128.474,295.973 136.219 C 296.952 140.880,297.015 155.073,296.061 156.027 C 295.899 156.189,291.389 156.416,286.038 156.532 C 280.688 156.648,273.952 156.941,271.071 157.182 C 268.189 157.424,263.765 157.624,261.240 157.626 L 256.649 157.631 252.926 151.974 C 250.878 148.862,249.203 146.004,249.203 145.622 C 249.203 145.241,249.021 144.816,248.799 144.679 C 248.306 144.374,247.862 142.289,247.141 136.902 C 246.616 132.976,246.590 132.913,246.531 135.421 C 246.468 138.114,245.841 138.831,245.138 137.016 C 244.920 136.452,242.408 132.973,239.555 129.285 C 229.890 116.790,229.323 115.336,231.136 107.685 C 231.782 104.962,232.523 101.093,232.784 99.089 C 233.943 90.190,234.205 88.387,234.872 84.738 C 237.427 70.767,241.077 66.457,257.175 58.403 C 262.861 55.558,266.189 54.251,274.032 51.781 C 277.084 50.820,279.908 51.069,282.924 52.566 M322.275 60.251 C 330.830 70.542,339.331 83.736,340.496 88.530 C 340.947 90.384,340.046 96.304,338.197 103.645 C 336.179 111.660,335.308 115.668,335.308 116.940 C 335.308 118.252,334.364 118.511,328.341 118.856 C 322.460 119.193,321.996 119.024,323.203 116.979 C 324.297 115.125,329.841 103.923,329.841 103.565 C 329.841 103.420,330.590 101.432,331.505 99.145 C 334.379 91.970,333.860 84.113,330.257 80.245 C 329.032 78.931,327.130 78.185,320.251 76.321 C 314.584 74.785,312.012 73.658,308.118 71.003 C 305.790 69.415,303.916 69.337,302.454 70.768 C 301.856 71.354,299.829 72.528,297.950 73.378 C 296.071 74.227,292.610 76.004,290.261 77.325 C 287.911 78.646,285.907 79.727,285.807 79.727 C 285.037 79.727,279.411 83.823,278.136 85.312 C 276.346 87.404,276.326 87.401,275.470 84.932 C 274.389 81.810,277.597 73.641,281.214 70.307 C 284.336 67.429,293.342 63.317,303.189 60.274 C 306.581 59.225,312.251 58.425,316.711 58.367 L 320.665 58.314 322.275 60.251 M306.658 72.377 C 309.069 74.265,314.430 76.502,319.818 77.868 C 329.546 80.335,332.716 83.767,331.458 90.471 C 331.025 92.780,325.294 96.479,321.770 96.723 C 321.072 96.771,320.399 96.932,320.273 97.080 C 319.272 98.265,305.729 100.522,304.278 99.745 C 302.333 98.705,297.751 90.632,297.265 87.391 C 296.891 84.898,297.421 84.356,300.603 83.979 L 302.898 83.708 303.196 85.476 C 304.604 93.830,311.365 97.683,317.288 93.508 C 320.046 91.564,320.312 91.620,319.975 94.077 C 319.784 95.469,319.860 96.128,320.211 96.128 C 321.162 96.128,321.054 88.355,320.070 86.017 C 318.079 81.282,311.820 80.098,301.367 82.478 C 297.316 83.401,297.035 82.493,300.014 78.112 C 300.873 76.848,301.816 75.105,302.107 74.239 C 303.095 71.309,304.540 70.718,306.658 72.377 M299.966 75.698 C 299.535 76.536,298.734 77.836,298.186 78.588 C 294.855 83.160,295.521 91.088,299.753 97.239 C 300.515 98.347,301.139 99.364,301.139 99.499 C 301.139 99.634,298.730 99.716,295.786 99.681 C 290.046 99.613,286.855 100.330,284.903 102.127 L 283.929 103.024 282.491 100.373 C 280.523 96.747,278.142 91.707,277.394 89.584 L 276.773 87.825 279.320 85.484 C 280.720 84.197,282.871 82.632,284.099 82.007 C 285.328 81.382,288.178 79.867,290.433 78.641 C 294.456 76.454,300.312 73.812,300.603 74.053 C 300.684 74.120,300.398 74.860,299.966 75.698 M315.915 82.922 C 319.347 84.623,320.325 86.997,317.241 86.141 C 313.293 85.044,309.605 85.628,307.138 87.739 L 305.353 89.268 304.809 86.503 C 304.150 83.156,303.977 83.345,308.314 82.676 C 313.401 81.891,313.865 81.906,315.915 82.922 M315.945 86.696 C 320.966 87.915,321.392 89.365,317.429 91.747 C 311.696 95.193,303.004 92.298,307.740 88.520 C 310.598 86.239,312.407 85.837,315.945 86.696 M348.240 99.744 C 351.863 106.659,352.542 110.648,350.456 112.764 C 348.423 114.825,340.086 117.995,336.698 117.995 C 335.870 117.995,336.166 115.840,337.814 109.875 C 339.870 102.432,341.055 97.870,341.720 94.833 L 342.252 92.399 344.463 94.576 C 345.679 95.774,347.379 98.099,348.240 99.744 M330.752 95.734 C 330.752 96.019,328.815 100.785,326.448 106.326 C 324.082 111.867,321.924 116.992,321.653 117.715 C 321.168 119.008,321.119 119.024,318.560 118.724 C 313.568 118.137,301.783 115.309,296.811 113.504 C 294.055 112.504,290.929 111.433,289.866 111.124 C 288.158 110.629,287.746 110.225,286.335 107.658 C 283.301 102.138,284.779 101.401,299.120 101.286 C 311.738 101.184,324.906 98.802,328.702 95.934 C 329.790 95.111,330.752 95.017,330.752 95.734 M291.138 112.591 C 296.722 115.289,305.473 117.722,315.490 119.362 C 317.244 119.649,319.789 120.074,321.147 120.306 C 326.301 121.189,334.931 120.544,340.636 118.851 L 343.957 117.865 346.153 119.866 C 347.361 120.967,349.807 123.035,351.588 124.461 C 356.286 128.222,361.731 137.458,361.731 141.667 C 361.731 144.490,357.104 148.426,346.469 154.648 C 342.711 156.847,337.538 160.058,334.975 161.783 C 328.160 166.368,327.566 166.459,321.152 163.897 C 318.288 162.753,314.100 161.144,311.845 160.322 C 306.453 158.355,306.591 158.686,309.357 154.357 C 314.896 145.691,317.183 144.396,333.378 140.756 C 334.446 140.515,336.291 140.313,337.478 140.305 C 339.252 140.294,339.484 140.203,338.784 139.797 C 336.791 138.639,320.700 141.954,318.125 144.053 C 316.288 145.551,317.033 143.658,319.506 140.544 C 323.917 134.991,335.474 124.696,341.053 121.352 C 342.680 120.376,341.268 120.162,339.451 121.109 C 330.125 125.969,312.941 144.527,306.959 156.195 L 305.944 158.177 303.655 157.877 C 298.574 157.213,297.381 156.716,297.712 155.403 C 298.486 152.325,298.507 140.067,297.745 136.211 C 296.500 129.914,291.734 116.915,289.500 113.727 C 288.042 111.645,288.509 111.321,291.138 112.591 M218.187 141.763 C 223.112 142.702,223.722 142.723,229.577 142.156 C 240.852 141.065,240.380 141.068,242.480 142.092 C 244.781 143.214,249.204 147.407,249.200 148.462 C 249.198 149.046,248.693 149.211,246.808 149.243 C 245.080 149.272,243.629 149.684,241.563 150.734 C 231.575 155.811,220.266 153.009,214.100 143.929 C 211.569 140.202,211.154 140.422,218.187 141.763 M251.624 151.880 C 251.741 152.185,252.884 153.802,254.165 155.472 C 256.987 159.155,256.981 158.942,254.418 163.499 C 250.308 170.808,235.492 175.302,221.329 173.536 C 215.987 172.870,212.687 171.244,215.526 170.676 C 218.547 170.072,225.504 166.208,230.938 162.116 C 234.047 159.774,237.738 156.998,239.139 155.946 C 244.519 151.907,250.844 149.847,251.624 151.880 M300.857 159.007 C 305.329 159.784,314.246 162.535,321.754 165.455 C 323.777 166.242,323.438 166.533,316.173 170.259 C 304.546 176.222,288.145 176.168,273.505 170.120 C 268.820 168.185,267.877 167.573,263.464 163.604 C 259.697 160.217,259.677 159.909,263.231 160.005 C 264.661 160.043,268.292 159.805,271.298 159.475 C 285.015 157.972,294.068 157.828,300.857 159.007 M265.207 167.497 C 266.830 168.806,271.129 171.106,273.971 172.186 C 274.751 172.483,275.032 172.870,274.882 173.443 C 274.763 173.900,275.815 176.586,277.230 179.435 C 278.643 182.282,280.004 185.755,280.262 187.175 C 281.246 192.585,282.079 195.621,283.169 197.772 C 284.643 200.682,284.870 200.790,277.110 194.879 C 266.021 186.431,263.472 183.264,260.155 173.804 C 259.364 171.549,258.183 168.514,257.532 167.060 C 256.379 164.489,256.367 164.373,257.112 162.810 L 257.879 161.203 260.651 163.631 C 262.176 164.967,264.226 166.706,265.207 167.497 M164.233 175.866 C 164.012 176.563,163.776 176.714,163.436 176.375 C 163.097 176.036,163.130 175.681,163.547 175.179 C 163.872 174.787,164.231 174.557,164.343 174.670 C 164.456 174.782,164.406 175.320,164.233 175.866 M161.536 185.959 C 159.985 202.510,159.649 204.670,156.241 220.046 C 153.439 232.690,152.012 237.573,148.137 247.785 C 146.060 253.257,146.006 253.237,144.495 246.469 C 139.943 226.087,140.315 216.882,146.182 204.784 C 149.613 197.707,161.600 177.393,162.067 177.861 C 162.181 177.975,161.942 181.619,161.536 185.959 M164.381 187.699 C 169.692 213.499,168.003 222.633,154.269 242.369 C 148.810 250.213,148.201 250.497,150.984 243.897 C 155.973 232.068,161.250 208.302,162.682 191.213 C 163.275 184.137,163.536 183.597,164.381 187.699 M343.356 206.117 C 342.975 207.109,344.252 207.995,345.075 207.312 C 345.905 206.624,345.493 205.467,344.419 205.467 C 343.972 205.467,343.493 205.759,343.356 206.117 M236.762 229.187 C 242.971 231.324,247.858 235.328,251.460 241.230 C 252.530 242.984,254.658 245.700,256.189 247.267 C 257.719 248.833,258.866 250.114,258.737 250.114 C 258.608 250.114,256.008 248.884,252.959 247.380 C 249.910 245.877,247.200 244.647,246.936 244.647 C 246.673 244.647,246.101 244.455,245.666 244.220 C 243.414 243.003,233.759 239.883,229.385 238.959 C 224.177 237.858,205.340 238.186,201.256 239.449 C 196.102 241.043,213.533 231.518,219.148 229.672 C 225.342 227.636,231.740 227.460,236.762 229.187 M230.772 241.409 C 235.342 242.581,241.238 244.691,251.378 248.785 C 256.684 250.927,259.700 251.916,260.394 251.742 C 261.275 251.521,263.267 252.637,262.778 253.078 C 262.597 253.241,249.892 256.333,245.566 257.267 C 230.546 260.509,216.849 256.475,204.360 245.132 C 202.411 243.362,200.592 241.913,200.317 241.913 C 199.974 241.913,199.984 241.747,200.351 241.381 C 201.817 239.914,225.026 239.935,230.772 241.409 M187.150 257.224 C 198.625 264.704,204.383 273.037,208.207 287.699 C 208.991 290.706,210.124 294.591,210.725 296.332 C 211.939 299.853,211.869 300.370,210.363 298.991 C 208.619 297.394,203.225 294.146,197.014 290.954 C 188.267 286.458,184.626 282.770,183.234 276.993 C 182.691 274.742,182.095 255.414,182.554 254.955 C 182.995 254.515,182.990 254.512,187.150 257.224 M193.476 256.103 C 203.600 260.773,209.160 267.912,214.001 282.460 C 214.979 285.399,215.162 286.896,215.307 293.166 L 215.476 300.456 214.371 298.178 C 213.763 296.925,212.237 291.827,210.979 286.848 C 207.332 272.414,203.290 265.961,192.027 256.586 C 189.285 254.303,189.453 254.247,193.476 256.103 M378.891 362.491 C 378.079 363.303,378.581 367.198,379.499 367.198 C 380.131 367.198,380.410 366.894,380.410 366.208 L 380.410 365.217 381.464 366.208 C 383.450 368.073,384.997 367.516,383.144 365.604 L 381.598 364.009 383.054 364.009 C 384.207 364.009,384.510 363.819,384.510 363.098 C 384.510 362.179,379.721 361.661,378.891 362.491 " stroke="none" fill="#000000" fill-rule="evenodd"></path></g></svg>